<svg width="608" height="590" viewBox="0 0 608 590" fill="none" xmlns="http://www.w3.org/2000/svg">
<g filter="url(#filter0_f_622_124)">
<path d="M106.372 77.3776C48.7216 110.662 6.65439 165.485 -10.575 229.786C-27.8044 294.087 -18.7847 362.599 14.5 420.25C47.7846 477.901 102.608 519.968 166.909 537.197C231.21 554.427 299.722 545.407 357.372 512.122L136.807 349.636L106.372 77.3776Z" fill="url(#paint0_linear_622_124)"/>
<path d="M124.385 351.024L124.992 356.457L129.393 359.7L333.875 510.338C282.968 534.426 224.947 539.808 170.144 525.123C109.045 508.752 56.9524 468.78 25.3253 414C-6.30177 359.22 -14.8723 294.12 1.49905 233.022C16.1834 178.219 49.8552 130.662 96.1691 98.6195L124.385 351.024Z" stroke="white" stroke-width="25"/>
</g>
<defs>
<filter id="filter0_f_622_124" x="-269.129" y="-172.622" width="876.502" height="968.373" filterUnits="userSpaceOnUse" color-interpolation-filters="sRGB">
<feFlood flood-opacity="0" result="BackgroundImageFix"/>
<feBlend mode="normal" in="SourceGraphic" in2="BackgroundImageFix" result="shape"/>
<feGaussianBlur stdDeviation="125" result="effect1_foregroundBlur_622_124"/>
</filter>
<linearGradient id="paint0_linear_622_124" x1="95.4472" y1="663.345" x2="273.446" y2="-135.242" gradientUnits="userSpaceOnUse">
<stop stop-color="#D5F60C"/>
<stop offset="1" stop-color="#0CE8F6"/>
</linearGradient>
</defs>
</svg>
