<svg width="28" height="28" viewBox="0 0 28 28" fill="none" xmlns="http://www.w3.org/2000/svg">
<g style="mix-blend-mode:luminosity">
<g clip-path="url(#clip0_730_948)">
<path d="M14 27.5625C21.4904 27.5625 27.5625 21.4904 27.5625 14C27.5625 6.50964 21.4904 0.4375 14 0.4375C6.50964 0.4375 0.4375 6.50964 0.4375 14C0.4375 21.4904 6.50964 27.5625 14 27.5625Z" fill="#EA4C89"/>
<path fill-rule="evenodd" clip-rule="evenodd" d="M14 0C6.27115 0 0 6.27115 0 14C0 21.7289 6.27115 28 14 28C21.7137 28 28 21.7289 28 14C28 6.27115 21.7137 0 14 0ZM23.2473 6.45336C24.9176 8.48807 25.9198 11.0846 25.9502 13.8937C25.5554 13.8178 21.6073 13.013 17.6291 13.5141C17.538 13.3167 17.462 13.1041 17.3709 12.8916C17.128 12.3146 16.8547 11.7224 16.5813 11.1605C20.9848 9.3688 22.9891 6.78742 23.2473 6.45336ZM14 2.06508C17.0369 2.06508 19.8156 3.20391 21.9263 5.07159C21.7137 5.37528 19.9067 7.78959 15.6551 9.38394C13.6963 5.78525 11.525 2.83948 11.1909 2.38395C12.0867 2.17137 13.0282 2.06508 14 2.06508ZM8.91328 3.18872C9.23213 3.61388 11.3579 6.57484 13.3471 10.0976C7.75922 11.5857 2.8243 11.5553 2.29284 11.5553C3.06724 7.85033 5.57267 4.76789 8.91328 3.18872ZM2.03471 14.0152C2.03471 13.8937 2.03471 13.7722 2.03471 13.6508C2.55098 13.6659 8.35142 13.7419 14.3189 11.9501C14.6682 12.6182 14.987 13.3015 15.2907 13.9848C15.1388 14.0304 14.9718 14.076 14.82 14.1215C8.6551 16.1106 5.37528 21.5466 5.10195 22.0021C3.2039 19.8916 2.03471 17.0825 2.03471 14.0152ZM14 25.9653C11.2364 25.9653 8.68547 25.0239 6.66595 23.4447C6.87853 23.0044 9.30799 18.3276 16.0499 15.974C16.0802 15.9588 16.0955 15.9588 16.1258 15.9436C17.8112 20.3015 18.4946 23.9609 18.6768 25.0086C17.2343 25.6312 15.6551 25.9653 14 25.9653ZM20.6659 23.9154C20.5445 23.1865 19.9067 19.6942 18.3427 15.3969C22.0933 14.8047 25.3731 15.7766 25.7831 15.9133C25.2669 19.2386 23.3536 22.1085 20.6659 23.9154Z" fill="#C32361"/>
</g>
</g>
<defs>
<clipPath id="clip0_730_948">
<rect width="28" height="28" rx="6" fill="white"/>
</clipPath>
</defs>
</svg>
