<svg width="1266" height="883" viewBox="0 0 1266 883" fill="none" xmlns="http://www.w3.org/2000/svg">
<g filter="url(#filter0_f_616_122)">
<mask id="path-1-inside-1_616_122" fill="white">
<path d="M1016 633C1016 531.422 975.648 434.005 903.822 362.178C831.995 290.352 734.578 250 633 250C531.422 250 434.005 290.352 362.178 362.178C290.352 434.004 250 531.422 250 633L633 633H1016Z"/>
</mask>
<path d="M1016 633C1016 531.422 975.648 434.005 903.822 362.178C831.995 290.352 734.578 250 633 250C531.422 250 434.005 290.352 362.178 362.178C290.352 434.004 250 531.422 250 633L633 633H1016Z" fill="url(#paint0_linear_616_122)"/>
<path d="M1016 633C1016 531.422 975.648 434.005 903.822 362.178C831.995 290.352 734.578 250 633 250C531.422 250 434.005 290.352 362.178 362.178C290.352 434.004 250 531.422 250 633L633 633H1016Z" stroke="white" stroke-width="50" mask="url(#path-1-inside-1_616_122)"/>
</g>
<defs>
<filter id="filter0_f_616_122" x="0" y="0" width="1266" height="883" filterUnits="userSpaceOnUse" color-interpolation-filters="sRGB">
<feFlood flood-opacity="0" result="BackgroundImageFix"/>
<feBlend mode="normal" in="SourceGraphic" in2="BackgroundImageFix" result="shape"/>
<feGaussianBlur stdDeviation="125" result="effect1_foregroundBlur_616_122"/>
</filter>
<linearGradient id="paint0_linear_616_122" x1="250" y1="171.5" x2="1169.5" y2="1016" gradientUnits="userSpaceOnUse">
<stop stop-color="#D5F60C"/>
<stop offset="1" stop-color="#0CE8F6"/>
</linearGradient>
</defs>
</svg>
