<svg width="106" height="106" viewBox="0 0 106 106" fill="none" xmlns="http://www.w3.org/2000/svg">
<g filter="url(#filter0_d_622_152)">
<rect x="7" y="5" width="84" height="84" rx="16.8" fill="#5074F4"/>
</g>
<path d="M71.4894 28.5238C69.8223 28.5238 69.1407 27.3449 69.9697 25.8988C70.4486 25.0607 70.1631 23.9922 69.3249 23.5133L67.7315 22.6015C67.0039 22.1686 66.0644 22.4265 65.6315 23.1541L65.5302 23.3291C64.7013 24.7751 63.3381 24.7751 62.4999 23.3291L62.3986 23.1541C61.9841 22.4265 61.0447 22.1686 60.317 22.6015L58.7236 23.5133C57.8855 23.9922 57.5999 25.0699 58.0789 25.908C58.917 27.3449 58.2355 28.5238 56.5684 28.5238C55.6105 28.5238 54.8184 29.3067 54.8184 30.2738V31.8949C54.8184 32.8528 55.6013 33.6449 56.5684 33.6449C58.2355 33.6449 58.917 34.8238 58.0789 36.2699C57.5999 37.108 57.8855 38.1765 58.7236 38.6554L60.317 39.5672C61.0447 40.0001 61.9841 39.7422 62.417 39.0146L62.5184 38.8396C63.3473 37.3936 64.7105 37.3936 65.5486 38.8396L65.6499 39.0146C66.0828 39.7422 67.0223 40.0001 67.7499 39.5672L69.3434 38.6554C70.1815 38.1765 70.467 37.0988 69.9881 36.2699C69.1499 34.8238 69.8315 33.6449 71.4986 33.6449C72.4565 33.6449 73.2486 32.862 73.2486 31.8949V30.2738C73.2394 29.3159 72.4565 28.5238 71.4894 28.5238ZM64.0289 34.0778C62.3802 34.0778 61.0355 32.733 61.0355 31.0843C61.0355 29.4357 62.3802 28.0909 64.0289 28.0909C65.6776 28.0909 67.0223 29.4357 67.0223 31.0843C67.0223 32.733 65.6776 34.0778 64.0289 34.0778Z" fill="white"/>
<path d="M41.9805 37.4948C33.2931 37.4948 26.2305 44.5574 26.2305 53.2448C26.2305 61.9321 33.2931 68.9948 41.9805 68.9948C50.6678 68.9948 57.7305 61.9321 57.7305 53.2448C57.7305 44.5574 50.6678 37.4948 41.9805 37.4948ZM41.9805 56.975H37.0068C36.327 56.975 35.7634 56.4113 35.7634 55.7316C35.7634 55.0519 36.327 54.4882 37.0068 54.4882H41.9805C42.6602 54.4882 43.2239 55.0519 43.2239 55.7316C43.2239 56.4113 42.6602 56.975 41.9805 56.975ZM46.9542 52.0013H37.0068C36.327 52.0013 35.7634 51.4376 35.7634 50.7579C35.7634 50.0782 36.327 49.5145 37.0068 49.5145H46.9542C47.6339 49.5145 48.1976 50.0782 48.1976 50.7579C48.1976 51.4376 47.6339 52.0013 46.9542 52.0013Z" fill="white"/>
<path d="M58.2279 70.6504C57.9294 70.6504 57.631 70.5343 57.4155 70.3188L54.3318 67.2351C53.8842 66.7875 53.8842 66.058 54.3318 65.5938C54.7794 65.1461 55.5089 65.1461 55.9731 65.5938L59.0568 68.6775C59.5044 69.1251 59.5044 69.8546 59.0568 70.3188C58.8247 70.5343 58.5263 70.6504 58.2279 70.6504Z" fill="white"/>
<defs>
<filter id="filter0_d_622_152" x="0.7" y="0.8" width="105" height="105" filterUnits="userSpaceOnUse" color-interpolation-filters="sRGB">
<feFlood flood-opacity="0" result="BackgroundImageFix"/>
<feColorMatrix in="SourceAlpha" type="matrix" values="0 0 0 0 0 0 0 0 0 0 0 0 0 0 0 0 0 0 127 0" result="hardAlpha"/>
<feOffset dx="4.2" dy="6.3"/>
<feGaussianBlur stdDeviation="5.25"/>
<feComposite in2="hardAlpha" operator="out"/>
<feColorMatrix type="matrix" values="0 0 0 0 0.0470588 0 0 0 0 0.470588 0 0 0 0 0.964706 0 0 0 0.2 0"/>
<feBlend mode="normal" in2="BackgroundImageFix" result="effect1_dropShadow_622_152"/>
<feBlend mode="normal" in="SourceGraphic" in2="effect1_dropShadow_622_152" result="shape"/>
</filter>
</defs>
</svg>
