<svg width="28" height="28" viewBox="0 0 28 28" fill="none" xmlns="http://www.w3.org/2000/svg">
<g style="mix-blend-mode:luminosity">
<g clip-path="url(#clip0_730_1048)">
<path d="M0 3.73531C0 2.83439 0.315324 2.09114 0.945946 1.50558C1.57657 0.919981 2.39641 0.627197 3.40541 0.627197C4.39641 0.627197 5.19819 0.915468 5.81081 1.49206C6.44143 2.08666 6.75676 2.86141 6.75676 3.81639C6.75676 4.68125 6.45046 5.40195 5.83784 5.97855C5.20722 6.57314 4.37838 6.87044 3.35135 6.87044H3.32432C2.33332 6.87044 1.53154 6.57314 0.918919 5.97855C0.306297 5.38395 0 4.6362 0 3.73531ZM0.351351 27.384V9.3299H6.35135V27.384H0.351351ZM9.67568 27.384H15.6757V17.3029C15.6757 16.6722 15.7478 16.1857 15.8919 15.8434C16.1441 15.2308 16.527 14.7128 17.0405 14.2894C17.5541 13.8659 18.1982 13.6542 18.973 13.6542C20.991 13.6542 22 15.0146 22 17.7353V27.384H28V17.0326C28 14.3659 27.3694 12.3434 26.1081 10.965C24.8468 9.58666 23.1802 8.89747 21.1081 8.89747C18.7838 8.89747 16.973 9.89747 15.6757 11.8975V11.9515H15.6486L15.6757 11.8975V9.3299H9.67568C9.7117 9.90647 9.72973 11.6993 9.72973 14.7083C9.72973 17.7173 9.7117 21.9425 9.67568 27.384Z" fill="#0A66C2"/>
</g>
</g>
<defs>
<clipPath id="clip0_730_1048">
<rect width="28" height="28" fill="white"/>
</clipPath>
</defs>
</svg>
