<svg width="111" height="42" viewBox="0 0 111 42" fill="none" xmlns="http://www.w3.org/2000/svg">
<g clip-path="url(#clip0_616_115)">
<rect width="55.5" height="42" fill="#0D0E13"/>
<path d="M21.9489 15.3636H24.4091V22.9205C24.4091 23.7689 24.2064 24.5114 23.8011 25.1477C23.3996 25.7841 22.8371 26.2803 22.1136 26.6364C21.3902 26.9886 20.5473 27.1648 19.5852 27.1648C18.6193 27.1648 17.7746 26.9886 17.0511 26.6364C16.3277 26.2803 15.7652 25.7841 15.3636 25.1477C14.9621 24.5114 14.7614 23.7689 14.7614 22.9205V15.3636H17.2216V22.7102C17.2216 23.1534 17.3182 23.5473 17.5114 23.892C17.7083 24.2367 17.9848 24.5076 18.3409 24.7045C18.697 24.9015 19.1117 25 19.5852 25C20.0625 25 20.4773 24.9015 20.8295 24.7045C21.1856 24.5076 21.4602 24.2367 21.6534 23.892C21.8504 23.5473 21.9489 23.1534 21.9489 22.7102V15.3636ZM28.8935 15.3636V27H26.4332V15.3636H28.8935ZM33.2244 15.3636L35.571 19.3295H35.6619L38.0199 15.3636H40.7983L37.2472 21.1818L40.8778 27H38.0483L35.6619 23.0284H35.571L33.1847 27H30.3665L34.0085 21.1818L30.4347 15.3636H33.2244Z" fill="white"/>
<path d="M74.5739 18.7102C74.5284 18.2519 74.3333 17.8958 73.9886 17.642C73.6439 17.3883 73.1761 17.2614 72.5852 17.2614C72.1837 17.2614 71.8447 17.3182 71.5682 17.4318C71.2917 17.5417 71.0795 17.6951 70.9318 17.892C70.7879 18.089 70.7159 18.3125 70.7159 18.5625C70.7083 18.7708 70.7519 18.9527 70.8466 19.108C70.9451 19.2633 71.0795 19.3977 71.25 19.5114C71.4205 19.6212 71.6174 19.7178 71.8409 19.8011C72.0644 19.8807 72.303 19.9489 72.5568 20.0057L73.6023 20.2557C74.1098 20.3693 74.5758 20.5208 75 20.7102C75.4242 20.8996 75.7917 21.1326 76.1023 21.4091C76.4129 21.6856 76.6534 22.0114 76.8239 22.3864C76.9981 22.7614 77.0871 23.1913 77.0909 23.6761C77.0871 24.3883 76.9053 25.0057 76.5455 25.5284C76.1894 26.0473 75.6742 26.4508 75 26.7386C74.3295 27.0227 73.5208 27.1648 72.5739 27.1648C71.6345 27.1648 70.8163 27.0208 70.1193 26.733C69.4261 26.4451 68.8845 26.0189 68.4943 25.4545C68.108 24.8864 67.9053 24.1837 67.8864 23.3466H70.267C70.2936 23.7367 70.4053 24.0625 70.6023 24.3239C70.803 24.5814 71.0701 24.7765 71.4034 24.9091C71.7405 25.0379 72.1212 25.1023 72.5455 25.1023C72.9621 25.1023 73.3239 25.0417 73.6307 24.9205C73.9413 24.7992 74.1818 24.6307 74.3523 24.4148C74.5227 24.1989 74.608 23.9508 74.608 23.6705C74.608 23.4091 74.5303 23.1894 74.375 23.0114C74.2235 22.8333 74 22.6818 73.7045 22.5568C73.4129 22.4318 73.0549 22.3182 72.6307 22.2159L71.3636 21.8977C70.3826 21.6591 69.608 21.286 69.0398 20.7784C68.4716 20.2708 68.1894 19.5871 68.1932 18.7273C68.1894 18.0227 68.3769 17.4072 68.7557 16.8807C69.1383 16.3542 69.6629 15.9432 70.3295 15.6477C70.9962 15.3523 71.7538 15.2045 72.6023 15.2045C73.4659 15.2045 74.2197 15.3523 74.8636 15.6477C75.5114 15.9432 76.0152 16.3542 76.375 16.8807C76.7348 17.4072 76.9205 18.017 76.9318 18.7102H74.5739ZM78.7457 27V15.3636H86.5866V17.392H81.206V20.1648H86.1832V22.1932H81.206V24.9716H86.6094V27H78.7457ZM88.5426 27V15.3636H96.2472V17.392H91.0028V20.1648H95.7358V22.1932H91.0028V27H88.5426Z" fill="#0D0E13"/>
<path d="M111 0H112V-1H111V0ZM111 42V43H112V42H111ZM55.5 1H111V-1H55.5V1ZM110 0V42H112V0H110ZM111 41H55.5V43H111V41Z" fill="#0D0E13" mask="url(#path-4-inside-1_616_115)"/>
</g>
<rect x="0.5" y="0.5" width="110" height="41" rx="20.5" stroke="#0D0E13"/>
<defs>
<clipPath id="clip0_616_115">
<rect width="111" height="42" rx="21" fill="white"/>
</clipPath>
</defs>
</svg>
