<svg width="111" height="111" viewBox="0 0 111 111" fill="none" xmlns="http://www.w3.org/2000/svg">
<path fill-rule="evenodd" clip-rule="evenodd" d="M55.5 111C86.1518 111 111 86.1518 111 55.5C111 24.8482 86.1518 0 55.5 0C24.8482 0 0 24.8482 0 55.5C0 86.1518 24.8482 111 55.5 111ZM55.0602 20.5477L55 20L54.9398 20.5477C52.8926 39.1805 38.1805 53.8926 19.5477 55.9398L19 56L19.5477 56.0602C38.1805 58.1074 52.8926 72.8195 54.9398 91.4523L55 92L55.0602 91.4523C57.1074 72.8195 71.8195 58.1074 90.4523 56.0602L91 56L90.4523 55.9398C71.8195 53.8926 57.1074 39.1805 55.0602 20.5477Z" fill="#D5F60C"/>
</svg>
