<svg width="200" height="200" viewBox="0 0 200 200" fill="none" xmlns="http://www.w3.org/2000/svg">
<path d="M163.831 137.802C158.629 150.526 149.77 161.421 138.376 169.11C126.982 176.799 113.564 180.936 99.8181 180.999C86.0725 181.062 72.6168 177.048 61.1528 169.463C49.6887 161.879 40.7311 151.065 35.4128 138.39" stroke="#D5F60C" stroke-width="2" stroke-linecap="round"/>
<path d="M26.2695 118.487L26.0325 116.797L33.3749 115.768C34.1562 115.658 34.8742 115.745 35.5289 116.027C36.18 116.31 36.7248 116.76 37.1632 117.376C37.5981 117.993 37.8782 118.749 38.0036 119.643C38.1284 120.533 38.0667 121.335 37.8183 122.048C37.5664 122.761 37.1663 123.343 36.6182 123.795C36.0664 124.246 35.3999 124.527 34.6186 124.636L27.2762 125.666L27.04 123.982L34.2461 122.971C34.7512 122.9 35.1845 122.726 35.5459 122.45C35.9067 122.169 36.171 121.808 36.3387 121.366C36.5028 120.924 36.5454 120.422 36.4664 119.858C36.3869 119.292 36.2075 118.818 35.9283 118.439C35.6449 118.056 35.2916 117.783 34.8686 117.62C34.445 117.454 33.9807 117.406 33.4756 117.477L26.2695 118.487Z" fill="white"/>
<path d="M29.6331 98.62C29.1089 98.6072 28.676 98.7921 28.3344 99.1747C27.9892 99.5569 27.7726 100.068 27.6845 100.708C27.6215 101.166 27.6397 101.572 27.7391 101.926C27.8348 102.28 27.9954 102.567 28.2207 102.787C28.4429 103.003 28.7121 103.133 29.0284 103.176C29.2937 103.213 29.5313 103.182 29.7409 103.085C29.9511 102.985 30.1356 102.841 30.2945 102.656C30.4503 102.466 30.588 102.259 30.7078 102.035C30.8239 101.81 30.9242 101.592 31.0088 101.382L31.4424 100.33C31.5787 99.986 31.7471 99.6369 31.9477 99.283C32.1482 98.9291 32.3923 98.6089 32.6799 98.3226C32.9675 98.0362 33.3047 97.8196 33.6916 97.6728C34.079 97.5224 34.5236 97.4817 35.0252 97.5507C35.6578 97.6378 36.1969 97.8786 36.6426 98.2733C37.0889 98.6644 37.4112 99.1885 37.6098 99.8455C37.8088 100.499 37.8482 101.262 37.7282 102.134C37.6131 102.97 37.3809 103.675 37.0315 104.25C36.6821 104.824 36.24 105.25 35.7054 105.528C35.1671 105.806 34.5592 105.917 33.8817 105.861L34.1143 104.171C34.5223 104.193 34.8766 104.109 35.1771 103.917C35.4745 103.721 35.7134 103.452 35.8938 103.11C36.071 102.764 36.1894 102.374 36.249 101.942C36.3145 101.466 36.2982 101.032 36.2002 100.64C36.0991 100.245 35.9287 99.9216 35.6892 99.6701C35.4461 99.4181 35.1428 99.2671 34.7793 99.2171C34.4485 99.1715 34.1646 99.2288 33.9278 99.3888C33.6914 99.5452 33.4821 99.7738 33.3 100.075C33.1183 100.372 32.9473 100.713 32.7868 101.099L32.2454 102.369C31.8787 103.229 31.4231 103.889 30.8785 104.348C30.3344 104.802 29.6734 104.976 28.8954 104.869C28.252 104.781 27.7143 104.529 27.2825 104.114C26.8507 103.699 26.5431 103.175 26.3598 102.542C26.1728 101.909 26.1308 101.218 26.2339 100.469C26.3379 99.7131 26.5624 99.0642 26.9073 98.5228C27.2527 97.9776 27.6811 97.5699 28.1924 97.2995C28.7001 97.0285 29.2549 96.9271 29.8567 96.9951L29.6331 98.62Z" fill="white"/>
<path d="M40.2311 89.7769L29.8041 85.493L32.4898 78.9558L33.8441 79.5122L31.8047 84.4762L34.9817 85.7815L36.8809 81.1585L38.2302 81.7128L36.3309 86.3358L39.5231 87.6473L41.5877 82.6221L42.942 83.1785L40.2311 89.7769Z" fill="white"/>
<path d="M46.881 75.8568L37.8587 69.0988L40.2675 65.8828C40.7911 65.1838 41.346 64.6939 41.9322 64.4132C42.5206 64.1296 43.1136 64.0327 43.711 64.1226C44.3055 64.2103 44.8803 64.462 45.4354 64.8778C45.9876 65.2914 46.3867 65.7715 46.6329 66.3181C46.8784 66.8595 46.9433 67.4492 46.8278 68.087C46.7144 68.7219 46.3959 69.3889 45.8724 70.0879L44.0476 72.5241L42.8757 71.6463L44.6081 69.3335C44.9381 68.8929 45.1433 68.4873 45.2238 68.1166C45.3065 67.743 45.2759 67.4014 45.1318 67.0918C44.9878 66.7822 44.7469 66.5009 44.4092 66.2479C44.0685 65.9927 43.7238 65.8377 43.3752 65.7829C43.0287 65.7251 42.6849 65.7862 42.3438 65.9663C42.0019 66.1411 41.6627 66.4533 41.3261 66.9026L40.0457 68.6119L47.9007 74.4955L46.881 75.8568ZM46.1465 68.3539L51.8869 69.1737L50.7253 70.7245L45.018 69.8605L46.1465 68.3539Z" fill="white"/>
<path d="M65.0799 57.4161L59.4643 47.6417L65.5925 44.1209L66.3218 45.3905L61.6685 48.0639L63.3795 51.0421L67.7131 48.5523L68.4397 49.8171L64.1061 52.3068L65.8253 55.2993L70.5359 52.5929L71.2653 53.8625L65.0799 57.4161Z" fill="white"/>
<path d="M77.0161 39.3069L80.7859 42.8427L80.8708 42.8193L82.3021 37.853L84.2021 37.3305L82.3108 43.6963L87.2128 48.1937L85.3022 48.7192L81.5379 45.2447L81.453 45.2681L79.995 50.1789L78.0844 50.7044L80.0553 44.3167L75.1162 39.8295L77.0161 39.3069Z" fill="white"/>
<path d="M94.8918 47.0667L94.8053 35.7943L98.8233 35.7635C99.7003 35.7568 100.428 35.9108 101.007 36.2257C101.585 36.5405 102.02 36.9738 102.31 37.5257C102.601 38.0739 102.748 38.693 102.754 39.3828C102.759 40.0763 102.619 40.7012 102.333 41.2575C102.051 41.8101 101.622 42.2501 101.044 42.5775C100.471 42.9011 99.7472 43.0663 98.8738 43.073L96.1108 43.0942L96.0997 41.6521L98.7087 41.6321C99.2628 41.6279 99.7115 41.529 100.055 41.3356C100.398 41.1384 100.65 40.8723 100.808 40.5371C100.967 40.202 101.045 39.8216 101.042 39.3959C101.039 38.9703 100.955 38.593 100.791 38.2639C100.627 37.9349 100.37 37.6782 100.02 37.4937C99.6737 37.3092 99.2179 37.2192 98.6528 37.2235L96.5173 37.2399L96.5925 47.0537L94.8918 47.0667Z" fill="white"/>
<path d="M111.252 47.9234L113.991 36.9884L120.847 38.7054L120.491 40.1256L115.285 38.8219L114.451 42.1536L119.299 43.3678L118.945 44.7827L114.096 43.5685L113.258 46.9163L118.528 48.2362L118.172 49.6564L111.252 47.9234Z" fill="white"/>
<path d="M125.985 52.5008L131.374 42.5998L134.903 44.5208C135.67 44.9383 136.235 45.4169 136.597 45.9566C136.962 46.4981 137.143 47.0709 137.14 47.6751C137.139 48.2761 136.973 48.8811 136.641 49.4902C136.311 50.0962 135.894 50.5603 135.388 50.8826C134.888 51.2034 134.314 51.3525 133.666 51.33C133.021 51.3092 132.315 51.09 131.548 50.6725L128.875 49.2173L129.575 47.9313L132.113 49.3128C132.596 49.576 133.027 49.7207 133.406 49.747C133.787 49.7751 134.121 49.6956 134.407 49.5085C134.692 49.3214 134.936 49.0425 135.138 48.6719C135.341 48.298 135.445 47.9346 135.449 47.5817C135.456 47.2306 135.346 46.8991 135.119 46.5875C134.897 46.2743 134.539 45.9835 134.046 45.7151L132.17 44.6941L127.478 53.314L125.985 52.5008ZM133.304 50.6942L133.318 56.4928L131.617 55.5665L131.65 49.7942L133.304 50.6942Z" fill="white"/>
<path d="M148.406 53.7965L141.097 62.3781L139.802 61.2753L147.112 52.6936L148.406 53.7965Z" fill="white"/>
<path d="M146.852 67.8565L155.717 60.8926L160.083 66.4503L158.932 67.3548L155.616 63.1346L152.915 65.2564L156.003 69.1866L154.856 70.0876L151.768 66.1575L149.054 68.2895L152.411 72.5616L151.259 73.466L146.852 67.8565Z" fill="white"/>
<path d="M169.677 84.4942L159.283 88.8579L158.678 87.4165L164.082 78.933L164.042 78.8366L156.419 82.0369L155.761 80.4687L166.155 76.105L166.764 77.5565L161.351 86.0493L161.392 86.1458L169.025 82.9412L169.677 84.4942Z" fill="white"/>
<path d="M170.418 106.254L170.236 104.546C170.594 104.442 170.902 104.285 171.16 104.077C171.419 103.869 171.631 103.625 171.796 103.345C171.962 103.065 172.077 102.76 172.142 102.428C172.206 102.1 172.22 101.758 172.182 101.4C172.113 100.754 171.889 100.193 171.51 99.7168C171.131 99.2441 170.612 98.8935 169.953 98.6647C169.294 98.4396 168.512 98.3753 167.608 98.4716C166.695 98.5687 165.941 98.7967 165.344 99.1554C164.748 99.5178 164.317 99.9715 164.05 100.517C163.783 101.062 163.684 101.653 163.752 102.292C163.79 102.646 163.873 102.976 164.002 103.284C164.134 103.594 164.309 103.869 164.527 104.108C164.744 104.347 164.999 104.541 165.292 104.691C165.588 104.844 165.919 104.936 166.284 104.967L166.461 106.675C165.9 106.643 165.374 106.52 164.882 106.306C164.395 106.096 163.962 105.805 163.583 105.432C163.207 105.062 162.901 104.626 162.663 104.124C162.425 103.621 162.273 103.062 162.207 102.445C162.104 101.475 162.242 100.585 162.621 99.7775C163.003 98.9692 163.602 98.3003 164.416 97.7707C165.231 97.2448 166.235 96.9183 167.429 96.7913C168.625 96.6639 169.676 96.7734 170.58 97.12C171.488 97.4662 172.212 97.9943 172.753 98.7043C173.297 99.4139 173.62 100.252 173.723 101.219C173.787 101.814 173.76 102.378 173.643 102.91C173.531 103.446 173.332 103.938 173.047 104.385C172.767 104.832 172.405 105.216 171.963 105.536C171.525 105.856 171.01 106.095 170.418 106.254Z" fill="white"/>
<path d="M162.633 116.038L173.757 117.86L172.615 124.834L171.17 124.598L172.037 119.302L168.648 118.746L167.84 123.679L166.401 123.443L167.209 118.511L163.803 117.953L162.925 123.314L161.48 123.078L162.633 116.038Z" fill="white"/>
</svg>
