<svg width="28" height="28" viewBox="0 0 28 28" fill="none" xmlns="http://www.w3.org/2000/svg">
<g style="mix-blend-mode:luminosity">
<path d="M20.0599 10.1073C21.8605 11.399 24.0663 12.159 26.4486 12.159V7.5583C25.9978 7.55839 25.5481 7.51121 25.107 7.41742V11.0388C22.7248 11.0388 20.5193 10.2788 18.7182 8.98722V18.3759C18.7182 23.0726 14.9243 26.8798 10.2446 26.8798C8.49848 26.8798 6.87553 26.35 5.52734 25.4415C7.06607 27.0204 9.21195 27.9999 11.586 27.9999C16.266 27.9999 20.0601 24.1927 20.0601 19.4958V10.1073H20.0599ZM21.715 5.46574C20.7948 4.45685 20.1906 3.15304 20.0599 1.71162V1.11987H18.7885C19.1085 2.95191 20.2001 4.5171 21.715 5.46574ZM8.48728 21.8374C7.97316 21.1608 7.69533 20.3333 7.69657 19.4824C7.69657 17.3343 9.43188 15.5926 11.5728 15.5926C11.9718 15.5925 12.3684 15.6538 12.7486 15.7748V11.0713C12.3042 11.0102 11.8558 10.9843 11.4075 10.9938V14.6548C11.027 14.5337 10.6302 14.4722 10.2311 14.4726C8.0902 14.4726 6.35499 16.2141 6.35499 18.3625C6.35499 19.8815 7.22236 21.1967 8.48728 21.8374Z" fill="#FF004F"/>
<path d="M18.7154 8.98712C20.5164 10.2787 22.7219 11.0387 25.1041 11.0387V7.41733C23.7744 7.13308 22.5972 6.43572 21.7121 5.46574C20.1971 4.517 19.1056 2.95182 18.7856 1.11987H15.4459V19.4956C15.4384 21.6379 13.706 23.3725 11.5697 23.3725C10.3108 23.3725 9.19242 22.7702 8.48412 21.8374C7.21929 21.1967 6.35192 19.8814 6.35192 18.3626C6.35192 16.2144 8.08714 14.4727 10.228 14.4727C10.6382 14.4727 11.0336 14.5368 11.4044 14.6549V10.9939C6.8069 11.0892 3.10938 14.8592 3.10938 19.4957C3.10938 21.8103 4.03014 23.9085 5.52456 25.4416C6.87275 26.35 8.4957 26.8799 10.2418 26.8799C14.9216 26.8799 18.7155 23.0725 18.7155 18.3759V8.98712H18.7154Z" fill="black"/>
<path d="M25.1058 7.41743V6.43823C23.9067 6.44006 22.7312 6.10305 21.7139 5.46575C22.6145 6.45524 23.8003 7.13751 25.1058 7.41743ZM18.7873 1.11998C18.7568 0.944897 18.7334 0.768659 18.7171 0.591749V0H14.1059V18.3759C14.0985 20.5179 12.3663 22.2525 10.2298 22.2525C9.60253 22.2525 9.01031 22.1031 8.48585 21.8376C9.19416 22.7703 10.3126 23.3725 11.5714 23.3725C13.7076 23.3725 15.4402 21.6381 15.4477 19.4958V1.11998H18.7873ZM11.4064 10.994V9.95154C11.0211 9.89869 10.6326 9.87216 10.2436 9.87236C5.56343 9.87226 1.76953 13.6796 1.76953 18.3759C1.76953 21.3203 3.2606 23.9151 5.52639 25.4415C4.03198 23.9085 3.11121 21.8102 3.11121 19.4957C3.11121 14.8593 6.80864 11.0893 11.4064 10.994Z" fill="#00F2EA"/>
</g>
</svg>
